<?xml version="1.0" encoding="UTF-8"?>
<svg id="Layer_2" data-name="Layer 2" xmlns="http://www.w3.org/2000/svg" viewBox="0 0 244.66 215.78">
  <defs>
    <style>
      .cls-1 {
        fill: #e41d39;
      }

      .cls-1, .cls-2, .cls-3 {
        stroke-miterlimit: 10;
      }

      .cls-1, .cls-3 {
        stroke: #000;
        stroke-width: 4px;
      }

      .cls-2 {
        fill: #e6e63d;
        stroke: #f7941d;
        stroke-width: 2px;
      }

      .cls-4 {
        fill: #fff;
      }

      .cls-5 {
        fill: #e9224c;
      }

      .cls-3 {
        fill: #d85da2;
      }
    </style>
  </defs>
  <g id="Layer_1-2" data-name="Layer 1">
    <ellipse class="cls-1" cx="77.13" cy="184.79" rx="30.81" ry="22.64" transform="translate(-121.47 159.19) rotate(-60)"/>
    <ellipse class="cls-1" cx="189.25" cy="152.71" rx="23.87" ry="30.81" transform="translate(-37.63 240.26) rotate(-60)"/>
    <ellipse class="cls-3" cx="185.13" cy="30.41" rx="29.62" ry="23.66" transform="translate(71.06 179.36) rotate(-61.88)"/>
    <ellipse class="cls-3" cx="29.02" cy="122.52" rx="29.62" ry="23.66" transform="translate(-75.67 52.56) rotate(-42.92)"/>
    <circle class="cls-3" cx="117.3" cy="104.45" r="74.04"/>
    <ellipse cx="97.89" cy="77.47" rx="12.43" ry="21.02" transform="translate(-21.89 42.3) rotate(-21.99)"/>
    <ellipse class="cls-4" cx="93.3" cy="71.97" rx="5.78" ry="9.29" transform="translate(-20.16 40.18) rotate(-21.99)"/>
    <ellipse cx="136.64" cy="69.17" rx="12.43" ry="21.02" transform="translate(-15.96 56.21) rotate(-21.99)"/>
    <ellipse class="cls-4" cx="132.05" cy="63.67" rx="5.78" ry="9.29" transform="translate(-14.24 54.09) rotate(-21.99)"/>
    <path d="M138.57,130.61c11.39-4.6,16.6-18.29,11.64-30.57l-41.24,16.66c4.96,12.28,18.21,18.51,29.6,13.91Z"/>
    <path class="cls-5" d="M138.33,129.33c5.36-2.17,7.82-8.61,5.48-14.39l-19.42,7.84c2.34,5.78,8.58,8.71,13.94,6.55Z"/>
    <polygon class="cls-2" points="228.9 38.01 233.8 45.9 238.55 53.57 206.2 66.46 204.66 63.97 202.72 60.84 228.9 38.01"/>
    <polygon class="cls-2" points="241.18 62.89 242.37 72.1 243.52 81.05 208.73 79.37 208.36 76.47 207.89 72.81 241.18 62.89"/>
  </g>
</svg>