<?xml version="1.0" encoding="UTF-8"?>
<svg id="Layer_2" xmlns="http://www.w3.org/2000/svg" xmlns:xlink="http://www.w3.org/1999/xlink" viewBox="0 0 233.66 319.7">
  <defs>
    <style>
      .cls-1 {
        fill: url(#linear-gradient-2);
      }

      .cls-1, .cls-2 {
        stroke: #231f20;
        stroke-miterlimit: 10;
        stroke-width: 10px;
      }

      .cls-2 {
        fill: url(#linear-gradient);
      }
    </style>
    <linearGradient id="linear-gradient" x1="116.83" y1="17" x2="116.83" y2="314.7" gradientUnits="userSpaceOnUse">
      <stop offset="0" stop-color="#fbef49"/>
      <stop offset=".13" stop-color="#fae947"/>
      <stop offset=".3" stop-color="#f9da43"/>
      <stop offset=".48" stop-color="#f8c13c"/>
      <stop offset=".68" stop-color="#f59e32"/>
      <stop offset=".88" stop-color="#f27226"/>
      <stop offset=".94" stop-color="#f26422"/>
    </linearGradient>
    <linearGradient id="linear-gradient-2" x1="163.43" y1="5" x2="163.43" y2="107.38" gradientUnits="userSpaceOnUse">
      <stop offset="0" stop-color="#76b9e2"/>
      <stop offset="0" stop-color="#8ac1c9"/>
      <stop offset="0" stop-color="#a7cca7"/>
      <stop offset="0" stop-color="#bfd68a"/>
      <stop offset="0" stop-color="#d3de73"/>
      <stop offset="0" stop-color="#e2e461"/>
      <stop offset="0" stop-color="#ede854"/>
      <stop offset="0" stop-color="#f3eb4d"/>
      <stop offset="0" stop-color="#f5ec4b"/>
      <stop offset="1" stop-color="#f7b731"/>
    </linearGradient>
  </defs>
  <g id="Layer_1-2" data-name="Layer_1">
    <path class="cls-2" d="M228.66,186.53c0-4.02-1.37-7.91-3.93-11.61v-13.99c0-10.15-8.23-18.38-18.38-18.38h-5.93c-6.72,0-12.57,3.61-15.78,8.99-3.36-1.01-6.87-1.95-10.52-2.81-.58-9.63-8.55-17.27-18.33-17.27h-5.93c-7.72,0-14.32,4.77-17.04,11.51-5.22-.29-10.56-.45-15.99-.45-.26,0-.51,0-.77,0-2.26-7.59-9.29-13.13-17.61-13.13h-5.93c-9.49,0-17.3,7.2-18.28,16.43-3.07.5-6.06,1.05-8.99,1.65V35.38c0-10.15-8.23-18.38-18.38-18.38h-14.3c-10.15,0-18.38,8.23-18.38,18.38v133.66c-5.91,5.36-9.19,11.27-9.19,17.49,0,2.03.36,4.02,1.03,5.98-.33,3.5-.52,7.04-.52,10.62,0,61.62,49.84,111.57,111.32,111.57s111.32-49.95,111.32-111.57c0-3.58-.19-7.12-.52-10.62.67-1.95,1.03-3.95,1.03-5.98Z"/>
    <path class="cls-1" d="M202.93,36.53h-21.52v-19.85c0-6.45-5.23-11.68-11.69-11.68h-12.61c-6.45,0-11.68,5.23-11.68,11.68v19.85h-21.52c-6.45,0-11.69,5.23-11.69,11.69v12.61c0,6.45,5.23,11.68,11.69,11.68h21.52v23.18c0,6.45,5.23,11.68,11.68,11.68h12.61c6.45,0,11.69-5.23,11.69-11.68v-23.18h21.52c6.45,0,11.68-5.23,11.68-11.68v-12.61c0-6.45-5.23-11.69-11.68-11.69Z"/>
  </g>
</svg>