<?xml version="1.0" encoding="UTF-8"?>
<svg id="Layer_2" xmlns="http://www.w3.org/2000/svg" viewBox="0 0 142.6 171.95">
  <defs>
    <style>
      .cls-1 {
        fill: #231f20;
        font-family: FranklinGothic-DemiCond, 'Franklin Gothic Demi Cond';
        font-size: 60.68px;
        font-weight: 300;
      }

      .cls-2 {
        fill: #e6e7e8;
        stroke: #d1d3d4;
        stroke-width: 3px;
      }

      .cls-2, .cls-3 {
        stroke-miterlimit: 10;
      }

      .cls-3 {
        fill: #c49a6c;
        stroke: #754c29;
        stroke-width: 10px;
      }
    </style>
  </defs>
  <g id="Layer_1-2" data-name="Layer_1">
    <path class="cls-3" d="M137.6,90.52c0-16.62-5-31.94-13.42-44.24,2.61-2.74,4.06-5.73,4.06-8.86,0-13.25-25.68-24-57.36-24S13.51,24.16,13.51,37.41c0,3.33,1.62,6.5,4.55,9.38-8.2,12.21-13.06,27.34-13.06,43.72,0,10.67,2.07,20.79,5.77,29.93-3.7,4.12-5.77,8.67-5.77,13.47,0,18.24,29.68,33.02,66.3,33.02s66.3-14.78,66.3-33.02c0-4.8-2.07-9.36-5.77-13.47,3.7-9.14,5.77-19.27,5.77-29.93Z"/>
    <text class="cls-1" transform="translate(16.93 114.3) scale(.71 1)"><tspan x="0" y="0">Wheat</tspan></text>
    <ellipse class="cls-3" cx="71.3" cy="36.7" rx="55.87" ry="23.29"/>
    <ellipse class="cls-2" cx="47.21" cy="27.37" rx="18.72" ry="10.89"/>
    <ellipse class="cls-2" cx="53.26" cy="38.27" rx="19.66" ry="13.11"/>
    <path class="cls-2" d="M109.17,8.99c-3.42,0-6.61.94-9.31,2.54-2.5-5.86-8.89-10.03-16.39-10.03-6.63,0-12.39,3.25-15.37,8.04-2.67-1.83-6.09-2.93-9.82-2.93-5.18,0-9.75,2.13-12.56,5.39-2.4-1.04-5.22-1.64-8.25-1.64-6.42,0-11.94,2.69-14.4,6.55-3.55,1.27-6.15,5.32-6.15,10.13,0,3.26,1.19,6.17,3.07,8.11,0,.02,0,.04,0,.06,0,6.29,7.31,11.49,16.84,12.43,5.4,4.32,17.01,7.31,30.48,7.31,8.65,0,16.51-1.25,22.48-3.28.67-.16,1.34-.33,1.98-.52,1.29.14,2.61.22,3.97.22,10.66,0,19.55-4.54,21.54-10.56,5.7-2.8,9.61-8.45,9.61-14.98,0-9.31-7.93-16.85-17.7-16.85Z"/>
    <rect class="cls-2" x="32.39" y="32.23" width="18.46" height="2.53" rx="1.27" ry="1.27" transform="translate(-3.9 5.54) rotate(-7.27)"/>
    <rect class="cls-2" x="62.66" y="38.87" width="18.46" height="2.53" rx="1.27" ry="1.27" transform="translate(7.75 -11.48) rotate(9.65)"/>
    <rect class="cls-2" x="91.35" y="30.11" width="18.46" height="2.53" rx="1.27" ry="1.27" transform="translate(-4.58 24.78) rotate(-13.74)"/>
    <rect class="cls-2" x="57.98" y="19.13" width="18.46" height="2.53" rx="1.27" ry="1.27" transform="translate(-2.92 16.55) rotate(-13.74)"/>
  </g>
</svg>