<?xml version="1.0" encoding="UTF-8"?>
<svg id="Layer_2" xmlns="http://www.w3.org/2000/svg" xmlns:xlink="http://www.w3.org/1999/xlink" viewBox="0 0 233.66 313.87">
  <defs>
    <style>
      .cls-1 {
        fill: url(#linear-gradient-2);
      }

      .cls-1, .cls-2 {
        stroke: #231f20;
        stroke-miterlimit: 10;
        stroke-width: 10px;
      }

      .cls-2 {
        fill: url(#linear-gradient);
      }
    </style>
    <linearGradient id="linear-gradient" x1="116.83" y1="11.17" x2="116.83" y2="308.87" gradientUnits="userSpaceOnUse">
      <stop offset="0" stop-color="#a4cf5c"/>
      <stop offset=".26" stop-color="#a1cd5b"/>
      <stop offset=".42" stop-color="#98c959"/>
      <stop offset=".55" stop-color="#8ac157"/>
      <stop offset=".67" stop-color="#75b653"/>
      <stop offset=".78" stop-color="#5aa84e"/>
      <stop offset=".89" stop-color="#399748"/>
      <stop offset=".98" stop-color="#138341"/>
      <stop offset="1" stop-color="#0c8040"/>
    </linearGradient>
    <linearGradient id="linear-gradient-2" x1="114.2" y1="63.79" x2="213.5" y2="36.7" gradientTransform="translate(84.18 -101.18) rotate(45.26)" gradientUnits="userSpaceOnUse">
      <stop offset="0" stop-color="#a3cf5b"/>
      <stop offset="1" stop-color="#3c8e44"/>
    </linearGradient>
  </defs>
  <g id="Layer_1-2" data-name="Layer_1">
    <path class="cls-2" d="M228.66,180.7c0-4.02-1.37-7.91-3.93-11.61v-13.99c0-10.15-8.23-18.38-18.38-18.38h-5.93c-6.72,0-12.57,3.61-15.78,8.99-3.36-1.01-6.87-1.95-10.52-2.81-.58-9.63-8.55-17.27-18.33-17.27h-5.93c-7.72,0-14.32,4.77-17.04,11.51-5.22-.29-10.56-.45-15.99-.45-.26,0-.51,0-.77,0-2.26-7.59-9.29-13.13-17.61-13.13h-5.93c-9.49,0-17.3,7.2-18.28,16.43-3.07.5-6.06,1.05-8.99,1.65V29.55c0-10.15-8.23-18.38-18.38-18.38h-14.3c-10.15,0-18.38,8.23-18.38,18.38v133.66c-5.91,5.36-9.19,11.27-9.19,17.49,0,2.03.36,4.02,1.03,5.98-.33,3.5-.52,7.04-.52,10.62,0,61.62,49.84,111.57,111.32,111.57s111.32-49.95,111.32-111.57c0-3.58-.19-7.12-.52-10.62.67-1.95,1.03-3.95,1.03-5.98Z"/>
    <path class="cls-1" d="M205.2,64.59l-15.14-15.28,14.1-13.97c4.58-4.54,4.62-11.94.08-16.52l-8.88-8.96c-4.54-4.58-11.94-4.62-16.52-.08l-14.1,13.97-15.14-15.28c-4.54-4.58-11.94-4.62-16.52-.08l-8.96,8.88c-4.58,4.54-4.62,11.94-.08,16.52l15.14,15.28-16.47,16.32c-4.58,4.54-4.62,11.94-.08,16.52l8.88,8.96c4.54,4.58,11.94,4.62,16.52.08l16.47-16.32,15.14,15.28c4.54,4.58,11.94,4.62,16.52.08l8.96-8.88c4.58-4.54,4.62-11.94.08-16.52Z"/>
  </g>
</svg>