<?xml version="1.0" encoding="UTF-8"?>
<svg id="Layer_2" xmlns="http://www.w3.org/2000/svg" viewBox="0 0 233.66 307.7">
  <defs>
    <style>
      .cls-1 {
        fill: #fff;
        stroke: #231f20;
        stroke-miterlimit: 10;
        stroke-width: 10px;
      }
    </style>
  </defs>
  <g id="Layer_1-2" data-name="Layer_1">
    <path class="cls-1" d="M228.66,174.53c0-4.02-1.37-7.91-3.93-11.61v-13.99c0-10.15-8.23-18.38-18.38-18.38h-5.93c-6.72,0-12.57,3.61-15.78,8.99-3.36-1.01-6.87-1.95-10.52-2.81-.58-9.63-8.55-17.27-18.33-17.27h-5.93c-7.72,0-14.32,4.77-17.04,11.51-5.22-.29-10.56-.45-15.99-.45-.26,0-.51,0-.77,0-2.26-7.59-9.29-13.13-17.61-13.13h-5.93c-9.49,0-17.3,7.2-18.28,16.43-3.07.5-6.06,1.05-8.99,1.65V23.38c0-10.15-8.23-18.38-18.38-18.38h-14.3c-10.15,0-18.38,8.23-18.38,18.38v133.66c-5.91,5.36-9.19,11.27-9.19,17.49,0,2.03.36,4.02,1.03,5.98-.33,3.5-.52,7.04-.52,10.62,0,61.62,49.84,111.57,111.32,111.57s111.32-49.95,111.32-111.57c0-3.58-.19-7.12-.52-10.62.67-1.95,1.03-3.95,1.03-5.98Z"/>
  </g>
</svg>