<?xml version="1.0" encoding="UTF-8"?>
<svg id="Layer_2" xmlns="http://www.w3.org/2000/svg" xmlns:xlink="http://www.w3.org/1999/xlink" viewBox="0 0 344.65 357.63">
  <defs>
    <style>
      .cls-1 {
        fill: #603913;
      }

      .cls-2 {
        fill: url(#linear-gradient);
        stroke: #a97c50;
        stroke-miterlimit: 10;
        stroke-width: 10px;
      }
    </style>
    <linearGradient id="linear-gradient" x1="171.99" y1="7.5" x2="171.99" y2="352.63" gradientUnits="userSpaceOnUse">
      <stop offset="0" stop-color="#8b5f3c"/>
      <stop offset=".35" stop-color="#875c3a"/>
      <stop offset=".68" stop-color="#7c5334"/>
      <stop offset="1" stop-color="#69462a"/>
      <stop offset="1" stop-color="#69462a"/>
    </linearGradient>
  </defs>
  <g id="Layer_1-2" data-name="Layer_1">
    <path class="cls-2" d="M338.98,217.39c-15.83-9.18-26.32-25.16-26.32-43.34,0-2.48.21-4.91.58-7.29-1.78.15-3.57.25-5.39.25-31.73,0-57.45-23.09-57.45-51.57,0-2.19.17-4.35.47-6.47-22.57-6.95-38.81-26.16-38.81-48.78,0-1.8.11-3.58.32-5.33-19.6-8.21-33.2-26.05-33.2-46.76,0-.2.01-.39.02-.59-4.54,1.87-8.71,4.24-12.38,7.04-12.03.93-23.7,3.2-34.86,6.65-5.46-1.53-11.32-2.38-17.43-2.38-29.33,0-53.11,19.2-53.11,42.89,0,1.19.08,2.36.19,3.52-2.7,2.87-5.3,5.83-7.8,8.89-27.32,1.77-48.82,20.22-48.82,42.74,0,11.38,5.5,21.72,14.46,29.4-2.33,11.22-3.57,22.86-3.57,34.79,0,6.56.38,13.04,1.1,19.4-5.48,6.75-8.68,14.82-8.68,23.49,0,15.63,10.35,29.3,25.82,36.8-.35,1.99-.54,4.03-.54,6.1,0,20.06,17.05,36.89,40.07,41.59,3.02,2.62,6.15,5.13,9.35,7.52,7.62,16.15,26.96,27.64,49.64,27.64,2.5,0,4.95-.15,7.35-.42,12.61,3.19,25.8,4.89,39.38,4.89,5.29,0,10.52-.27,15.68-.77,7.61,3.4,16.36,5.34,25.67,5.34,25.79,0,47.27-14.85,52.09-34.53,13.14-9.36,24.86-20.65,34.79-33.45,15.41-7.51,25.72-21.16,25.72-36.75,0-2.72-.33-5.38-.93-7.97,2.69-7.28,4.89-14.81,6.57-22.53Z"/>
    <circle class="cls-1" cx="110.06" cy="95.28" r="16.21"/>
    <circle class="cls-1" cx="82.11" cy="205" r="16.21"/>
    <circle class="cls-1" cx="148.49" cy="265.97" r="16.21"/>
    <circle class="cls-1" cx="153.34" cy="151.58" r="16.21"/>
    <circle class="cls-1" cx="232.74" cy="258.31" r="16.21"/>
    <circle class="cls-1" cx="180.91" cy="211.33" r="16.21"/>
    <circle class="cls-1" cx="178.62" cy="79.07" r="16.21"/>
    <circle class="cls-1" cx="232.74" cy="162.18" r="16.21"/>
  </g>
</svg>